<svg xmlns="http://www.w3.org/2000/svg" width="200" height="100" viewBox="0 0 200 100">
        <defs>
            <linearGradient id="g1" x1="0" y1="0" x2="1" y2="0">
                <stop offset="0" stop-color="#FF6B35"/>
                <stop offset=".4" stop-color="#FF8C42"/>
                <stop offset="1" stop-color="#4ECDC4"/>
            </linearGradient>
            <linearGradient id="g2" x1="0" y1="0" x2="0" y2="1">
                <stop offset="0" stop-color="rgba(255,255,255,.6)"/>
                <stop offset=".5" stop-color="rgba(255,255,255,.2)"/>
                <stop offset="1" stop-color="rgba(255,255,255,0)"/>
            </linearGradient>
            <radialGradient id="g3">
                <stop offset="0" stop-color="rgba(255,255,255,.8)"/>
                <stop offset=".7" stop-color="rgba(76,205,196,.6)"/>
                <stop offset="1" stop-color="rgba(76,205,196,.3)"/>
            </radialGradient>
        </defs>
        <!-- Ondas WiFi -->
        <g transform="translate(15,25)" opacity=".7">
            <path d="M0 25Q15 5 30 25Q15 45 0 25" fill="none" stroke="url(#g3)" stroke-width="2" opacity=".4"/>
            <path d="M5 25Q15 12 25 25Q15 38 5 25" fill="none" stroke="url(#g3)" stroke-width="2" opacity=".6"/>
            <path d="M10 25Q15 18 20 25Q15 32 10 25" fill="none" stroke="url(#g3)" stroke-width="2" opacity=".8"/>
        </g>
        <!-- Letra g -->
        <g transform="translate(48,20)">
            <circle cx="12" cy="20" r="12" fill="url(#g1)"/>
            <circle cx="12" cy="20" r="7" fill="rgba(255,255,255,.95)"/>
            <rect x="17" y="20" width="5" height="15" fill="url(#g1)"/>
            <rect x="17" y="30" width="8" height="5" fill="url(#g1)"/>
            <ellipse cx="12" cy="16" rx="8" ry="4" fill="url(#g2)" opacity=".6"/>
        </g>
        <!-- Texto linage -->
        <text x="78" y="42" font-family="Arial,sans-serif" font-size="20" font-weight="300" fill="#2C3E50">lina</text>
        <text x="118" y="42" font-family="Arial,sans-serif" font-size="20" font-weight="300" fill="url(#g1)">ge</text>
        <!-- Rectángulo COMUNICACIONES -->
        <rect x="48" y="58" width="140" height="18" fill="#2C3E50" rx="2" opacity=".9"/>
        <rect x="48" y="58" width="140" height="6" fill="url(#g2)" rx="2" opacity=".3"/>
        <text x="118" y="71" font-family="Arial,sans-serif" font-size="10" font-weight="400" fill="white" text-anchor="middle" letter-spacing="1">COMUNICACIONES</text>
        <!-- Líneas decorativas -->
        <g transform="translate(188,58)">
            <rect y="4" width="8" height="2" fill="url(#g1)" opacity=".8"/>
            <rect y="8" width="6" height="2" fill="url(#g1)" opacity=".6"/>
            <rect y="12" width="4" height="2" fill="url(#g1)" opacity=".4"/>
        </g>
    </svg>